<?xml version="1.0" standalone="no"?>
<!DOCTYPE svg PUBLIC "-//W3C//DTD SVG 20010904//EN"
 "http://www.w3.org/TR/2001/REC-SVG-20010904/DTD/svg10.dtd">
<svg version="1.0" xmlns="http://www.w3.org/2000/svg"
 width="235.000000pt" height="222.000000pt" viewBox="0 0 235.000000 222.000000"
 preserveAspectRatio="xMidYMid meet">

<g transform="translate(0.000000,222.000000) scale(0.100000,-0.100000)"
fill="#000000" stroke="none">
<path d="M1793 1961 c2 -57 -13 -82 -38 -61 -9 7 -15 28 -15 51 0 22 -5 39
-10 39 -31 0 -18 -94 16 -117 18 -12 24 -11 46 6 17 14 28 17 35 10 20 -20 21
7 3 61 -24 71 -40 76 -37 11z"/>
<path d="M1617 1958 c-48 -17 -50 -95 -2 -116 27 -12 61 -3 77 22 14 20 8 63
-9 78 -28 24 -36 26 -66 16z m52 -40 c19 -51 -39 -82 -61 -33 -8 19 -8 28 2
40 18 22 49 18 59 -7z"/>
<path d="M1527 1933 c-4 -3 -7 -21 -7 -40 0 -41 -8 -41 -45 -3 -19 20 -32 27
-39 20 -7 -7 2 -22 27 -48 20 -21 37 -46 37 -55 0 -23 17 -22 29 2 15 27 26
131 14 131 -5 0 -13 -3 -16 -7z"/>
<path d="M1273 1870 c-27 -11 -39 -53 -27 -89 8 -21 17 -27 48 -29 28 -3 37 0
34 10 -3 7 -15 12 -26 10 -12 -2 -22 2 -22 7 0 6 9 11 21 11 29 0 59 18 59 35
0 19 -36 55 -52 54 -7 0 -23 -4 -35 -9z m54 -36 c2 -6 -9 -14 -24 -17 -33 -6
-38 -3 -29 18 7 18 47 17 53 -1z"/>
<path d="M1190 1811 c0 -83 -25 -94 -61 -26 -25 46 -39 57 -39 29 0 -37 52
-104 81 -104 10 0 23 9 29 19 13 25 13 121 0 121 -5 0 -10 -18 -10 -39z"/>
<path d="M895 1810 c-8 -14 24 -148 37 -156 18 -12 20 5 4 59 -9 30 -16 64
-16 75 0 24 -16 37 -25 22z"/>
<path d="M1010 1801 c-57 -15 -61 -98 -5 -123 22 -10 30 -8 53 9 30 23 39 52
22 82 -14 28 -40 39 -70 32z m38 -33 c19 -19 14 -56 -8 -63 -24 -8 -50 10 -50
34 0 19 19 41 35 41 6 0 16 -5 23 -12z"/>
<path d="M691 1761 c-36 -10 -40 -34 -6 -29 24 3 30 -2 41 -32 20 -54 17 -78
-8 -82 -12 -2 -24 -9 -26 -17 -6 -17 45 -11 102 13 40 17 41 40 1 30 -21 -5
-25 -1 -37 43 -13 44 -13 49 4 57 44 22 -9 35 -71 17z"/>
<path d="M1080 1541 c-83 -27 -153 -64 -196 -103 -20 -18 -24 -18 -80 -2 -73
20 -126 9 -169 -36 -35 -36 -39 -88 -10 -120 18 -20 18 -22 2 -31 -25 -14 -47
-63 -47 -102 0 -41 38 -87 72 -87 23 0 24 -5 36 -115 22 -205 91 -329 227
-410 16 -10 16 -12 -1 -40 -16 -29 -16 -33 0 -66 33 -69 138 -103 250 -79 32
6 60 10 62 7 3 -2 -1 -31 -9 -63 -11 -52 -15 -59 -34 -56 -32 5 -58 -13 -73
-48 -17 -42 -1 -80 35 -80 22 0 30 9 51 54 24 53 59 204 49 214 -2 3 -30 0
-61 -7 -82 -16 -143 -13 -191 8 -106 49 -88 151 21 120 66 -19 196 -4 196 23
0 5 -9 6 -22 1 -13 -4 -59 -8 -103 -7 -144 1 -254 73 -324 212 -35 70 -65 228
-58 305 4 49 4 49 -24 43 -42 -8 -79 26 -79 73 0 20 7 47 16 60 20 28 72 51
114 51 21 0 29 4 24 11 -4 7 -23 9 -50 5 -36 -5 -48 -2 -64 14 -11 11 -20 32
-20 46 0 31 46 80 84 90 34 8 108 -3 132 -20 16 -12 23 -10 59 19 97 79 232
125 366 125 198 0 308 -62 380 -213 45 -96 60 -268 33 -389 -4 -16 -2 -28 3
-28 6 0 16 27 23 60 16 74 8 212 -17 306 -15 57 -16 66 -3 74 69 44 144 -79
143 -235 0 -112 -42 -275 -77 -304 -14 -12 -13 -17 4 -51 31 -61 69 -205 80
-303 10 -84 4 -202 -16 -321 -5 -25 -4 -37 3 -33 18 11 38 159 37 272 -1 120
-24 236 -70 351 -23 59 -24 67 -11 88 23 35 55 147 68 238 9 70 8 94 -5 151
-32 137 -84 193 -154 167 -31 -11 -36 -10 -45 6 -23 40 -104 117 -147 139
-105 53 -277 60 -410 16z m110 -1331 c0 -17 -32 -90 -39 -90 -13 0 -31 24 -31
40 0 25 29 60 51 60 10 0 19 -4 19 -10z"/>
<path d="M1275 1236 c-30 -45 16 -91 61 -61 28 18 31 46 8 69 -22 23 -51 20
-69 -8z"/>
<path d="M1248 1119 c18 -20 15 -39 -8 -39 -13 0 -20 -7 -20 -19 0 -23 -16
-36 -25 -21 -3 5 -10 10 -16 10 -16 0 -10 -19 11 -30 14 -8 22 -6 32 5 7 9 24
27 38 40 20 20 23 29 14 42 -6 9 -17 19 -25 21 -11 4 -12 2 -1 -9z"/>
<path d="M500 1073 c-24 -9 -60 -45 -60 -60 0 -8 -13 -13 -35 -13 -131 0 -155
-153 -32 -199 16 -6 59 -11 96 -11 57 0 71 3 88 23 86 94 77 241 -17 261 -14
2 -32 2 -40 -1z"/>
<path d="M1058 989 c-25 -14 -23 -65 2 -79 48 -26 91 30 55 70 -20 22 -32 24
-57 9z"/>
</g>
</svg>
